<svg width="50" height="50" viewBox="0 0 50 50" fill="none" xmlns="http://www.w3.org/2000/svg">
<g clip-path="url(#clip0_25_815)">
<path d="M42.8545 24.7285C42.8545 28.2154 41.8075 31.624 39.846 34.5232C37.8845 37.4224 35.0965 39.6821 31.8346 41.0165C28.5727 42.3509 24.9834 42.7 21.5206 42.0197C18.0577 41.3395 14.8769 39.6604 12.3804 37.1948C9.88384 34.7292 8.18367 31.5878 7.49487 28.168C6.80607 24.7481 7.15959 21.2033 8.51071 17.9818C9.86184 14.7604 12.1499 12.007 15.0855 10.0698C18.0211 8.13256 21.4725 7.09858 25.0032 7.09858C29.7376 7.09858 34.2782 8.95602 37.626 12.2623C40.9737 15.5685 42.8545 20.0528 42.8545 24.7285Z" fill="#ED1C24"/>
<path d="M18.8632 42.9892L18.1133 44.6266L17.7969 45.2631L17.4747 45.1011C17.3947 44.9352 17.2834 44.7859 17.1466 44.6613L17.6622 43.5446C17.5859 43.3235 17.455 43.1246 17.2814 42.966C17.1751 42.9398 17.0628 42.9521 16.965 43.0007L16.0862 43.3016C15.7604 43.4277 15.3984 43.4277 15.0727 43.3016C14.9112 43.2197 14.7689 43.1053 14.6548 42.9658C14.5408 42.8263 14.4576 42.6647 14.4106 42.4916L14.7563 42.3238C14.8492 42.431 14.9244 42.5521 14.9789 42.6825C15.0183 42.7559 15.0826 42.8133 15.1606 42.8445C15.3191 42.8763 15.4824 42.8763 15.641 42.8445C15.8929 42.8445 16.0276 42.7751 16.0511 42.7346C16.1097 42.5957 16.0159 42.4221 15.764 42.2023C15.5188 41.9946 15.2446 41.8231 14.9496 41.6931C15.0126 41.564 15.1001 41.4481 15.2074 41.3517L14.7212 41.1145L14.3931 40.9698L14.5805 40.5648L19.7947 42.8792L19.6073 43.2843L18.8632 42.9892ZM18.0957 42.642L16.4202 41.8898C16.4882 42.1164 16.4882 42.3576 16.4202 42.5841C16.5877 42.5996 16.7564 42.5996 16.924 42.5841C17.1053 42.5695 17.2875 42.5695 17.4689 42.5841C17.6269 42.7787 17.7589 42.9926 17.8614 43.2206C17.8979 43.1677 17.9293 43.1115 17.9551 43.0528C17.9551 42.9892 18.0137 42.8503 18.0957 42.642Z" fill="#32A149"/>
<path d="M22.7534 43.7761L22.2495 46.2293L21.8805 46.1599C21.0647 45.3166 19.9895 44.7633 18.8222 44.5861L18.7695 43.886C19.1327 43.8397 19.6542 43.8108 20.3338 43.7934C21.0134 43.7761 21.5817 43.7529 21.898 43.7298V43.6198L18.5938 42.9602L18.6816 42.5378L23.7376 43.5273L23.6498 43.9554L22.7534 43.7761ZM20.1229 46.021C19.9709 45.9953 19.8256 45.9403 19.6952 45.859C19.5194 45.7549 19.4491 45.6276 19.4784 45.4887C19.5311 45.2283 19.7655 45.1416 20.1814 45.2226C20.3305 45.2488 20.4723 45.306 20.5974 45.3903C20.6649 45.4209 20.7212 45.471 20.7589 45.5341C20.7966 45.5972 20.8139 45.6702 20.8083 45.7433C20.7932 45.806 20.7604 45.8632 20.7137 45.9082C20.6671 45.9533 20.6085 45.9843 20.5447 45.9979C20.4087 46.0427 20.263 46.0506 20.1229 46.021ZM21.7809 44.2852C21.195 44.2852 20.6443 44.3199 20.1229 44.372C20.6401 44.65 21.122 44.988 21.5582 45.3788L21.7809 44.2852Z" fill="#32A149"/>
<path d="M26.8193 43.7471V43.9207C27.2149 43.9048 27.6105 43.9517 27.991 44.0596C28.4832 44.21 28.741 44.4588 28.7644 44.8175C28.7644 44.9969 28.6589 45.1473 28.4246 45.2804C28.2442 45.3784 28.0442 45.4357 27.8387 45.4482C27.7051 45.46 27.5705 45.4402 27.4462 45.3903C27.389 45.371 27.3379 45.3372 27.2981 45.2923C27.2582 45.2473 27.231 45.1929 27.2192 45.1343C27.2073 45.0758 27.2112 45.0151 27.2305 44.9585C27.2498 44.9019 27.2837 44.8513 27.329 44.8117C27.419 44.7404 27.53 44.6998 27.6454 44.696C27.8344 44.6977 28.0192 44.7518 28.1785 44.8522C28.2488 44.8175 28.284 44.7886 28.2781 44.7481C28.2781 44.4704 27.8856 44.3546 27.1474 44.3952H26.8427L26.9423 46.1888H26.5674C26.1638 45.9065 25.7139 45.6951 25.2375 45.5639C24.68 45.4534 24.1129 45.3972 23.5443 45.3961L23.1166 44.8175C24.0888 44.5958 25.0489 44.3254 25.9932 44.0075C25.9871 43.9421 25.9871 43.8762 25.9932 43.8108L22.7358 43.9901L22.6948 43.5678L29.3913 43.1974V43.6198L26.8193 43.7471ZM26.0811 44.9332C26.0811 44.968 26.0811 44.8465 26.046 44.5745C25.5445 44.6861 25.0496 44.8252 24.5637 44.9911C24.9563 45.1068 25.4777 45.2804 26.1104 45.5234L26.0811 44.9332Z" fill="#32A149"/>
<path d="M30.0708 43.1627L30.6567 45.5639L30.3462 45.6392C30.1681 45.5314 29.968 45.4642 29.7603 45.4424L29.2272 43.3595L28.4245 43.5678L28.3132 43.1454L29.1627 42.9313L29.0338 42.4453L29.3444 42.3527L29.7955 42.7751L30.7856 42.5263L30.891 42.9545L30.0708 43.1627Z" fill="#32A149"/>
<path d="M34.0898 41.6931L35.0799 44.0075L34.7284 44.1521C33.5721 43.9085 32.3666 44.051 31.3011 44.5572L30.8617 43.9786C31.1312 43.7413 31.5472 43.4 32.0979 43.0297C32.6486 42.6594 33.1056 42.3006 33.3516 42.1039L33.3048 42.0055L30.1821 43.3074L30.0063 42.9024L34.7401 40.9178L34.9159 41.317L34.0898 41.6931ZM33.5684 42.6362C33.1137 42.9497 32.6738 43.2837 32.2502 43.6372C32.8341 43.5694 33.4239 43.5694 34.0078 43.6372L33.5684 42.6362ZM33.211 45.0085C33.069 45.0728 32.9159 45.1101 32.7599 45.1184C32.6831 45.1326 32.6036 45.1223 32.5331 45.089C32.4625 45.0557 32.4045 45.0012 32.3674 44.9333C32.2619 44.6902 32.4084 44.4819 32.7951 44.3199C32.9341 44.2614 33.0833 44.2299 33.2345 44.2274C33.3073 44.2201 33.3806 44.235 33.4445 44.2702C33.5084 44.3054 33.5598 44.3591 33.5918 44.4241C33.6175 44.4831 33.6246 44.5483 33.612 44.6113C33.5995 44.6743 33.5679 44.7321 33.5215 44.777C33.4378 44.8729 33.331 44.9465 33.211 44.9911V45.0085Z" fill="#32A149"/>
<path d="M3.93554 20.7188L6.12668 20.985L6.0388 21.7082L5.45293 21.633L4.90222 21.5694C4.75373 21.5339 4.59857 21.5359 4.4511 21.5754C4.30363 21.6148 4.16862 21.6904 4.05857 21.795C3.88 22.0473 3.7765 22.344 3.75978 22.6514C3.71291 23.0217 3.75978 23.23 3.82423 23.23H3.85352V23.1663V23.1027V22.9464C3.84969 22.8925 3.84969 22.8384 3.85352 22.7844C3.87843 22.6168 3.94484 22.4578 4.04686 22.3216C4.17575 22.1364 4.3105 22.0496 4.4511 22.067C4.59171 22.0843 4.77919 22.2868 4.83192 22.6456C4.87552 22.9778 4.87552 23.3143 4.83192 23.6465L4.38666 23.9069C4.38666 23.8143 4.38666 23.7276 4.42767 23.6408V23.4961C4.50969 22.8539 4.45696 22.5183 4.27534 22.4951C4.09373 22.472 4.09373 22.5819 4.06443 22.8018C4.04483 23.0417 4.09353 23.2822 4.20504 23.4961C4.03514 23.7449 3.85352 23.8606 3.6719 23.8375C3.57886 23.8243 3.49131 23.786 3.41894 23.7268C3.34656 23.6676 3.29218 23.5897 3.2618 23.5019C3.18266 23.332 3.15421 23.1433 3.17978 22.958C3.29646 22.389 3.57253 21.8638 3.97655 21.4421L3.44927 21.3784L3.63675 19.8799L4.02928 19.9261L3.93554 20.7188Z" fill="#29A74A"/>
<path d="M5.31229 16.281L7.39797 16.9926L7.26322 17.3456C6.97549 17.4285 6.69525 17.5349 6.42543 17.6638C6.10112 17.838 5.84838 18.1183 5.71068 18.4565H5.75755C5.82974 18.4793 5.89339 18.5229 5.94035 18.5817C5.98732 18.6404 6.01547 18.7117 6.02119 18.7863C6.03733 18.9354 6.01725 19.0862 5.9626 19.226C5.90344 19.3989 5.80981 19.5582 5.68724 19.6947C5.5232 19.8741 5.37088 19.9377 5.21855 19.8857C5.12717 19.8485 5.04924 19.785 4.9949 19.7035C4.94056 19.6219 4.91234 19.5261 4.9139 19.4286C4.88818 19.2338 4.90823 19.0358 4.97249 18.85C5.11359 18.5376 5.31912 18.2578 5.57593 18.0283C5.74583 17.8721 6.00361 17.658 6.34341 17.3861L5.06037 16.9464L3.99409 19.9898L3.61914 19.8625L5.23613 15.2337L5.61108 15.361L5.31229 16.281ZM7.64403 12.2771L9.51294 13.4343L9.32547 13.7236L8.91536 13.9376L8.21232 13.4805L7.91939 13.2954C7.82571 13.2358 7.71283 13.2131 7.60302 13.2317L7.49171 14.8287L6.98786 15.2337C7.04059 14.8345 7.04059 14.6262 6.98786 14.5915C6.93514 14.5567 6.81796 14.5915 6.73594 14.713C6.65392 14.8345 6.6422 14.875 6.5719 15.008C6.5016 15.1411 6.44887 15.2395 6.40786 15.3031C6.25553 15.5461 6.09149 15.6098 5.90987 15.4999C5.72825 15.3899 5.73411 15.199 5.79856 14.8518C5.83325 14.6101 5.91269 14.3767 6.0329 14.1633C6.35915 13.6634 6.81956 13.2628 7.36282 13.0061C7.22221 12.9193 7.06989 12.8209 6.91756 12.711L7.73191 11.4092L8.06 11.6117L7.64403 12.2771ZM7.05817 14.0418V13.4632C6.822 13.5831 6.62801 13.7706 6.5016 14.0013C6.428 14.1205 6.37086 14.249 6.3317 14.3832C6.27311 14.5741 6.28483 14.7014 6.37271 14.7708L6.42543 14.7419C6.46059 14.7072 6.5719 14.5336 6.75938 14.2385C6.79153 14.18 6.83884 14.1309 6.89649 14.0963C6.95413 14.0618 7.02004 14.043 7.08746 14.0418H7.05817Z" fill="#29A74A"/>
<path d="M9.51892 13.9203C9.38551 13.937 9.25712 13.9811 9.14207 14.0499C9.02702 14.1187 8.92787 14.2105 8.85104 14.3195C8.67809 14.5604 8.53084 14.8183 8.41164 15.0891C8.29068 15.3608 8.14354 15.6204 7.97224 15.8644C7.81468 16.0587 7.61431 16.2151 7.38637 16.3215C7.28232 16.3901 7.15999 16.4268 7.03485 16.4268C6.90972 16.4268 6.78739 16.3901 6.68334 16.3215L6.56616 16.2347L6.79465 15.9454C6.92848 16.0037 7.07809 16.0166 7.22012 15.982C7.36215 15.9475 7.48859 15.8674 7.57971 15.7544C7.72891 15.5529 7.85838 15.3379 7.96638 15.1122C8.07651 14.8968 8.20592 14.6915 8.35305 14.4989C8.52756 14.2726 8.7395 14.0769 8.97993 13.9203L8.84518 13.8103L9.23771 13.3127L9.72398 13.6888L9.51892 13.9203ZM10.4329 9.29148C10.7331 9.25829 11.0146 9.13047 11.2355 8.92696C11.3397 8.82136 11.432 8.70497 11.5109 8.5798H12.2022C12.0776 8.83555 12.0486 9.12655 12.1202 9.40141C12.1971 9.62082 12.3256 9.8191 12.4951 9.98001C12.6439 10.0891 12.8076 10.1768 12.9814 10.2404L12.8466 10.5181C12.4461 10.4523 12.0692 10.287 11.7511 10.0379C11.6136 9.83439 11.5071 9.61218 11.4347 9.37826C11.2336 9.48941 11.019 9.57495 10.7961 9.63285C10.6098 9.66828 10.4172 9.65227 10.2395 9.58656C10.1115 9.78167 10.0128 9.99411 9.9466 10.2172C9.8763 10.4545 9.88802 10.6165 9.9759 10.709C9.98799 10.7236 10.0032 10.7353 10.0204 10.7433C10.0376 10.7514 10.0564 10.7555 10.0755 10.7555C10.0945 10.7555 10.1134 10.7514 10.1306 10.7433C10.1478 10.7353 10.163 10.7236 10.1751 10.709C10.323 10.4957 10.4044 10.2443 10.4094 9.9858C10.5719 9.92763 10.7475 9.91467 10.9169 9.94835C11.0864 9.98202 11.2432 10.061 11.3703 10.1767C11.4448 10.2518 11.4993 10.344 11.5289 10.4449C11.5586 10.5459 11.5624 10.6525 11.5402 10.7553C11.4789 11.0398 11.327 11.2973 11.1066 11.4902C10.9239 11.691 10.6927 11.8429 10.4346 11.932C10.1765 12.021 9.89983 12.0441 9.63024 11.9993C9.24122 11.8734 8.86781 11.7045 8.51709 11.4959L8.80417 11.1546C9.09692 11.3705 9.44717 11.4971 9.81185 11.5191C10.1826 11.4832 10.5248 11.3069 10.7668 11.0273C10.8616 10.9403 10.9357 10.8336 10.9836 10.7148C11.0163 10.6602 11.031 10.597 11.0257 10.5338C11.0205 10.4706 10.9955 10.4105 10.9543 10.3619C10.9259 10.3287 10.8897 10.3029 10.8488 10.2867C10.7978 10.455 10.7052 10.6081 10.5793 10.7322C10.4846 10.8348 10.3699 10.9174 10.242 10.975C10.1142 11.0327 9.97581 11.0643 9.83529 11.0678C9.73955 11.0633 9.64568 11.04 9.55917 10.9993C9.47265 10.9586 9.39523 10.9012 9.33145 10.8306C9.26039 10.6993 9.22793 10.5509 9.23771 10.4024L7.9488 11.629L7.67931 11.3513L11.9385 7.30109L12.2139 7.57882L10.4329 9.29148Z" fill="#29A74A"/>
<path d="M13.3973 7.02915L14.6217 8.85752L14.3874 9.00796C14.2091 8.97692 14.0267 8.97692 13.8484 9.00796L12.788 7.4226L12.1552 7.83919L11.9385 7.50939L12.6064 7.09279L12.3603 6.7167L12.5888 6.5547L13.0926 6.77456L13.8484 6.28275L14.0652 6.60677L13.3973 7.02915Z" fill="#29A74A"/>
<path d="M13.7429 6.60098L13.5906 6.24804L18.752 4.01464L18.9102 4.36759L13.7429 6.60098ZM17.4807 7.41681C16.9671 7.66932 16.3786 7.73093 15.8227 7.59039C15.2759 7.41823 14.8047 7.06722 14.4869 6.5952L14.7506 6.39847C15.0172 6.71377 15.3514 6.96671 15.729 7.13908C15.9687 7.21946 16.2224 7.25165 16.4749 7.23376C16.7274 7.21588 16.9738 7.14827 17.1995 7.03493C17.449 6.92628 17.6786 6.7777 17.8791 6.5952C18.1427 6.35219 18.2306 6.12653 18.1369 5.92402C18.0985 5.83713 18.0355 5.76304 17.9555 5.71069C17.8754 5.65834 17.7818 5.62995 17.6858 5.62894C17.4856 5.60774 17.2834 5.6397 17.0999 5.72151C16.9007 5.8083 16.807 5.87773 16.8304 5.92981C16.8538 5.98188 16.9007 5.96452 17.0179 5.98188C17.1351 5.99924 17.1995 6.03396 17.2229 6.08603C17.2471 6.15319 17.2493 6.22613 17.2293 6.29461C17.2094 6.3631 17.1682 6.42369 17.1116 6.46791C17.0098 6.57399 16.8859 6.65691 16.7484 6.71092C16.5919 6.78667 16.4187 6.82248 16.2445 6.81507C16.1585 6.81327 16.0748 6.78654 16.004 6.73819C15.9332 6.68985 15.8783 6.62201 15.8462 6.54312C15.7641 6.35797 15.8462 6.14389 16.1039 5.91245C16.2921 5.737 16.5103 5.59594 16.7484 5.49586C17.0738 5.35259 17.43 5.29098 17.7854 5.31649C17.9607 5.30503 18.1356 5.34437 18.2885 5.42968C18.4415 5.51499 18.566 5.64256 18.6466 5.79673C18.7084 5.96736 18.7157 6.15263 18.6675 6.3275C18.6193 6.50237 18.518 6.65842 18.3771 6.77456C18.1345 7.0563 17.8272 7.27653 17.4807 7.41681Z" fill="#29A74A"/>
<path d="M22.935 3.76006L23.1342 4.91726L22.5484 5.01562L22.3902 4.66267C22.035 4.52145 21.6539 4.45446 21.2712 4.46595C21.2894 4.50483 21.3031 4.54558 21.3122 4.58745C21.3552 4.80347 21.2204 4.93654 20.9079 4.98669C20.7686 5.01282 20.6255 5.01282 20.4861 4.98669C20.4173 4.97684 20.3531 4.94673 20.3019 4.90027C20.2507 4.85382 20.2148 4.7932 20.199 4.72632C20.158 4.46016 20.3338 4.29237 20.7322 4.22872C21.2484 4.16893 21.7711 4.19434 22.2789 4.30394L22.2086 3.90471L18.875 4.45438L18.8105 4.06671L24.265 3.14674L24.3235 3.50547L22.935 3.76006Z" fill="#29A74A"/>
<path d="M23.2574 6.06867H22.9117L22.7828 6.0166H22.4957C22.2598 6.03159 22.0251 6.06057 21.7927 6.10339C21.5599 6.14203 21.3252 6.16907 21.0896 6.18439C20.8309 6.20604 20.5704 6.17854 20.3222 6.10339C20.1986 6.07616 20.0873 6.01014 20.005 5.91523C19.9226 5.82031 19.8735 5.7016 19.8652 5.57686C19.8613 5.50941 19.8613 5.4418 19.8652 5.37435H20.3046C20.3046 5.72151 20.4804 5.88931 20.7791 5.87773C20.9256 5.87773 21.1365 5.84302 21.4177 5.80252C21.6289 5.76405 21.8421 5.73701 22.0563 5.72151C22.2069 5.71721 22.3572 5.73675 22.5016 5.77937C22.4945 5.67727 22.4945 5.57481 22.5016 5.47271V5.16606C22.5052 5.11315 22.4965 5.06013 22.4761 5.01106C22.4558 4.962 22.4243 4.91819 22.3842 4.88299C22.344 4.8478 22.2962 4.82216 22.2445 4.80804C22.1927 4.79392 22.1384 4.7917 22.0856 4.80154H21.9802L21.781 4.95776C22.1012 4.95776 22.2653 5.01562 22.2731 5.13134C22.2733 5.17375 22.262 5.21544 22.2404 5.25208C22.2187 5.28871 22.1876 5.31895 22.1501 5.33964C22.0785 5.3928 21.9932 5.42489 21.904 5.43221C21.4646 5.43221 21.242 5.33385 21.2303 5.08505C21.2244 5.02087 21.2335 4.95621 21.2569 4.89604C21.2802 4.83587 21.3172 4.78177 21.365 4.73789C21.5032 4.62929 21.6628 4.55046 21.8337 4.50645C22.151 4.48634 22.4697 4.50382 22.7828 4.55853C22.9014 4.5785 23.0094 4.63839 23.0884 4.72803C23.1675 4.81767 23.2126 4.93154 23.2163 5.05033V5.79094C23.2403 5.88174 23.2541 5.97489 23.2574 6.06867ZM25.2903 3.73113L25.2552 5.90088H24.9622C24.8396 5.75225 24.6857 5.63181 24.5111 5.54793V5.28756V3.71955L23.7378 3.70798V3.32611H24.681L25.0091 3.1236C24.5964 2.77888 24.0732 2.59022 23.5327 2.59128C23.0542 2.57775 22.5826 2.70678 22.1794 2.96159L21.9157 2.79958C22.5408 2.46355 23.2326 2.2661 23.9428 2.22098C24.2956 2.22917 24.6428 2.30996 24.9622 2.45821C25.2493 2.59428 25.5238 2.75498 25.7824 2.93844L25.1263 3.34346H26.0578V3.72534L25.2903 3.73113ZM31.4946 4.71475L30.9732 6.85557L30.5748 6.75721C29.8817 5.97608 28.9466 5.44312 27.915 5.24127V4.62796C28.3871 4.59922 28.8606 4.59922 29.3328 4.62796H30.7623V4.54695L27.4639 3.74848L27.5517 3.37239L32.3558 4.5296L32.2621 4.90568L31.4946 4.71475ZM30.6334 5.09662C30.0007 5.07348 29.4792 5.07348 29.0691 5.09662C29.552 5.35688 29.9973 5.67992 30.3932 6.0571L30.6334 5.09662Z" fill="#29A74A"/>
<path d="M33.2054 5.42643L32.3676 7.43995L32.104 7.33581C32.0356 7.17071 31.934 7.02109 31.8052 6.89607L32.5316 5.16027L31.8286 4.87676L31.9809 4.51224L32.6957 4.80154L32.8714 4.38494L33.1409 4.48331L33.2347 5.02141L34.0666 5.36278L33.9201 5.72151L33.2054 5.42643ZM35.2969 9.29148C35.1739 9.10632 34.9981 8.87488 34.7697 8.58558C34.5902 8.35068 34.3944 8.12835 34.1838 7.92019C33.9359 7.69319 33.6715 7.48434 33.3929 7.2953L33.8967 6.79771L34.4123 7.30109C34.6801 7.61264 34.9156 7.94991 35.1153 8.30786C35.3325 8.66847 35.5281 9.04134 35.7012 9.42455L35.2969 9.29148ZM34.4884 6.97707C34.3091 6.88029 34.15 6.7507 34.0197 6.5952C33.9442 6.52859 33.8925 6.4396 33.8724 6.34155C33.8524 6.24351 33.865 6.14168 33.9084 6.05131C33.9764 5.94935 34.073 5.86926 34.1865 5.82093C34.3 5.7726 34.4253 5.75816 34.547 5.77937C34.7969 5.78859 35.0413 5.85389 35.2618 5.97031C35.4386 6.06095 35.5942 6.18708 35.7188 6.34061C35.785 6.41112 35.8274 6.50028 35.84 6.59568C35.8526 6.69108 35.8348 6.78799 35.7891 6.87293C35.7279 6.96981 35.6408 7.0481 35.5374 7.09916C35.434 7.15021 35.3184 7.17204 35.2032 7.16223C34.9527 7.1629 34.7063 7.09909 34.4884 6.97707ZM34.8692 6.10917C34.8249 6.09883 34.7788 6.09883 34.7345 6.10917C34.7143 6.10663 34.6938 6.10961 34.6752 6.11777C34.6566 6.12593 34.6407 6.13897 34.629 6.15546C34.6042 6.21208 34.5914 6.27313 34.5914 6.33483C34.5914 6.39653 34.6042 6.45758 34.629 6.51419C34.6588 6.63701 34.7314 6.74556 34.8341 6.82085L34.9923 6.86135H35.1212C35.1212 6.86135 35.1212 6.68777 35.0509 6.48526C34.9806 6.28275 34.9103 6.1381 34.8692 6.10917ZM36.5331 8.92117C36.5842 8.87627 36.6454 8.84394 36.7116 8.82685C36.7777 8.80975 36.8471 8.80837 36.9139 8.82281C37.0503 8.85289 37.1782 8.91214 37.2889 8.99639C37.3925 9.08167 37.473 9.19102 37.5232 9.31462C37.5539 9.37451 37.5664 9.44192 37.5591 9.50867C37.5519 9.57542 37.5251 9.63865 37.4822 9.69071C37.2889 9.92215 37.0194 9.89901 36.6796 9.61549C36.4357 9.41989 36.2546 9.1586 36.1582 8.86331C36.0988 8.72351 36.0779 8.57074 36.0974 8.42039C36.117 8.27005 36.1763 8.12746 36.2695 8.00698C36.3319 7.92953 36.4112 7.86694 36.5015 7.82387C36.5917 7.7808 36.6906 7.75835 36.7909 7.75818C36.994 7.76931 37.1877 7.84663 37.3416 7.97805C37.4703 8.09875 37.5808 8.2371 37.6697 8.38886C37.7824 8.53236 37.8569 8.70143 37.8865 8.88067C38.1568 8.98481 38.4461 9.03211 38.736 9.01953C38.6978 9.23125 38.7395 9.44943 38.8531 9.63285L39.2105 9.21626C39.0075 9.07586 38.812 8.92522 38.6246 8.76495L36.539 7.02915L36.8085 6.71092L40.5521 9.81222L40.3002 10.1131L39.7905 9.6965L38.3844 11.3802L38.1149 11.1256L38.0329 10.628L38.3669 10.2404C38.452 10.1498 38.5249 10.0486 38.5836 9.93951C38.617 9.86886 38.6286 9.79012 38.6172 9.71301C38.6057 9.6359 38.5716 9.56378 38.5192 9.50556L37.7986 9.29148C37.7442 9.18879 37.6972 9.08245 37.658 8.97325C37.6339 8.88799 37.5984 8.80628 37.5525 8.73023C37.4813 8.62186 37.3922 8.52603 37.2889 8.44672C37.1743 8.34761 37.0379 8.27628 36.8905 8.23842C36.8179 8.21764 36.7407 8.21865 36.6687 8.24132C36.5968 8.26398 36.5332 8.30729 36.4862 8.36572C36.4156 8.44152 36.376 8.54046 36.3749 8.64344C36.3753 8.6936 36.3871 8.74302 36.4094 8.78808C36.4317 8.83314 36.464 8.87268 36.5038 8.90381L36.5331 8.92117Z" fill="#29A74A"/>
<path d="M41.0501 11.1372L39.3803 12.5779L39.1929 12.3696C39.2067 12.1888 39.1807 12.0072 39.1167 11.8373L40.5638 10.5875L40.0658 10.0089L40.3587 9.75436L40.8684 10.333L41.22 10.0321L41.4133 10.2404L41.2551 10.7669L41.841 11.4381L41.5422 11.6927L41.0501 11.1372Z" fill="#29A74A"/>
<path d="M42.4854 13.0061C42.3685 12.8927 42.2289 12.8048 42.0755 12.7479C41.9221 12.6911 41.7584 12.6667 41.5948 12.6763C41.2988 12.629 40.9953 12.6756 40.7278 12.8094C40.5696 12.9193 40.5286 13.0292 40.5989 13.145C40.687 13.1768 40.7804 13.1924 40.8742 13.1912C40.9483 13.2051 41.0186 13.2344 41.0803 13.2773C41.1419 13.3203 41.1935 13.3757 41.2316 13.44C41.3044 13.5393 41.3434 13.6589 41.3429 13.7814C41.3462 13.8399 41.3351 13.8984 41.3106 13.9517C41.2861 14.0051 41.249 14.0519 41.2023 14.0881C41.1484 14.1254 41.0864 14.1496 41.0212 14.1587C40.956 14.1677 40.8896 14.1614 40.8274 14.1401C40.6484 14.0833 40.4951 13.9667 40.3938 13.8103C40.2356 13.6116 40.1564 13.3626 40.1712 13.1102C40.1908 12.9917 40.2361 12.8786 40.3038 12.7788C40.3715 12.679 40.4602 12.5947 40.5637 12.5316C40.7511 12.3877 40.966 12.2827 41.1956 12.223C41.4252 12.1634 41.6646 12.1503 41.8995 12.1845L41.3136 11.3687L41.6359 11.143L43.1767 13.2549L42.8544 13.4863L42.4854 13.0061Z" fill="#29A74A"/>
<path d="M43.5108 14.6667L42.6613 15.0775V15.1932C43.2089 15.5598 43.7174 15.9805 44.1787 16.4488V17.2183C44.0205 17.0818 43.8258 16.9933 43.6179 16.9635C43.41 16.9338 43.1978 16.964 43.0069 17.0505C42.7912 17.1705 42.6128 17.3466 42.4914 17.5597L42.2805 17.1142C42.4714 16.8429 42.7217 16.6174 43.0128 16.4546C43.1362 16.4 43.2661 16.3611 43.3995 16.3388C43.0058 15.9215 42.5264 15.5921 41.9934 15.3726L41.8997 14.6204L43.1827 13.9839L42.7785 13.1855L43.13 13.0119L45.327 17.3456L44.9696 17.5192L43.5108 14.6667ZM45.8835 21.2859L43.7861 21.7892L43.6865 21.4421L43.874 20.9734L44.7001 20.8056C44.9024 20.7696 45.0908 20.6796 45.2449 20.5453C45.4192 20.3409 45.5165 20.0833 45.5203 19.8162C45.4938 19.7645 45.4645 19.7143 45.4324 19.6658C45.3856 19.6021 45.3504 19.5674 45.3211 19.5616C45.2918 19.5558 45.2274 19.6426 45.2039 19.741C45.1805 19.8394 45.1219 20.0419 45.0985 20.1055C45.0828 20.1557 45.0556 20.2017 45.0191 20.2398C44.9825 20.278 44.9375 20.3072 44.8876 20.3254C44.6649 20.3794 44.5185 20.2695 44.4482 19.9956C44.4306 19.8863 44.4306 19.775 44.4482 19.6658C44.5126 19.5558 44.5888 19.417 44.6708 19.2434C44.5933 19.1588 44.5046 19.0848 44.4072 19.0235C44.2678 18.9322 44.166 18.7947 44.1201 18.6359C44.0967 18.5272 44.0967 18.4148 44.1201 18.3061C44.1201 18.1614 44.208 18.0804 44.3017 18.0573C44.3954 18.0341 44.6181 18.1036 44.8114 18.3003C44.9315 18.441 45.0716 18.5638 45.2274 18.6648L45.0868 18.0862C45.1971 17.93 45.2913 17.7633 45.368 17.5886C45.4593 17.9003 45.4891 18.2263 45.4559 18.5491C45.4559 18.6764 45.4149 18.7921 45.4031 18.8905C45.6301 19.1414 45.8304 19.4148 46.0007 19.7063C45.8246 19.9809 45.6755 20.2715 45.5555 20.5742L46.0827 20.4527L46.446 21.9108L46.0593 22.0033L45.8835 21.2859Z" fill="#29A74A"/>
<path d="M49.2229 24.7285C49.2229 29.4593 47.8025 34.0839 45.1412 38.0174C42.4799 41.9509 38.6973 45.0167 34.2717 46.8271C29.8462 48.6375 24.9764 49.1112 20.2782 48.1883C15.5801 47.2653 11.2646 44.9872 7.87738 41.6421C4.4902 38.2969 2.1835 34.0349 1.24898 29.395C0.314457 24.7551 0.794087 19.9457 2.62722 15.575C4.46035 11.2043 7.56464 7.46862 11.5475 4.84033C15.5304 2.21204 20.2131 0.809194 25.0033 0.809194C31.4243 0.81685 37.5802 3.33937 42.1206 7.82346C46.661 12.3075 49.2152 18.3871 49.2229 24.7285ZM25.0033 0.0338695C20.0604 0.0327257 15.2281 1.4791 11.1175 4.19011C7.00693 6.90111 3.80259 10.755 1.90969 15.2645C0.0167842 19.7739 -0.47968 24.7365 0.483069 29.5246C1.44582 34.3127 3.82455 38.7114 7.31848 42.1644C10.8124 45.6174 15.2646 47.9698 20.1122 48.9239C24.9597 49.8781 29.9849 49.3913 34.5523 47.525C39.1198 45.6588 43.0243 42.4969 45.7722 38.4392C48.5202 34.3815 49.9881 29.6101 49.9904 24.7285C49.9858 18.1835 47.3523 11.9076 42.6678 7.27797C37.9833 2.64832 31.6305 0.0430625 25.0033 0.0338695Z" fill="#399A48"/>
<path d="M18.0957 12.3581C17.92 12.2597 17.2403 12.1324 17.0412 12.3581C16.842 12.5837 17.1525 13.1507 17.0997 13.4342C16.7189 13.5558 16.3733 14.0939 16.1916 14.4294C15.8929 14.9791 15.9632 15.2858 16.5373 15.5866C16.9303 15.7552 17.3119 15.9485 17.6797 16.1652C18.0638 16.4568 18.4986 16.6765 18.9628 16.8133C19.0621 17.0077 19.1182 17.2208 19.1273 17.4383C19.1364 17.6559 19.0983 17.8728 19.0155 18.0746C18.6188 18.0514 18.2213 18.1024 17.8438 18.2251C17.4454 18.3929 17.422 18.7574 17.1466 19.0582C16.8713 19.3591 16.5607 19.4054 16.3147 19.8336C16.1104 20.1368 16.0212 20.5016 16.0628 20.8635C16.3147 21.6214 17.6915 21.5983 18.3008 21.9628C19.203 22.5067 18.623 23.311 18.2363 23.9648C17.8496 24.6186 17.9492 25.2261 18.3535 26.013C18.7654 26.6415 19.0831 27.3256 19.2967 28.0439C19.6014 29.5483 18.9159 31.8974 20.3279 32.9099C20.6735 33.1587 21.1539 33.3497 21.4058 32.9099C21.605 32.5801 21.6578 33.0257 21.9214 32.7479C22.2964 32.3487 22.0679 32.3834 22.1792 32.6438C22.396 33.1414 22.4838 32.8521 23.058 32.7074C23.6321 32.5628 23.802 32.4876 24.2297 32.8579C24.6574 33.2282 24.8976 33.4943 25.2491 32.962C25.5186 32.557 25.4249 31.9379 25.6885 31.5444C25.9522 31.151 26.2744 31.4114 26.7138 31.5444C26.8134 31.5444 26.7958 31.5792 26.8778 31.637C27.5399 31.637 27.2821 31.0584 27.7039 30.8328C28.237 30.555 28.5475 31.3535 28.8288 30.6881C29.1744 29.8896 28.5475 28.4084 30.0767 28.7845C31.014 29.0102 31.4417 30.0227 31.6292 30.8733C31.7522 31.4519 31.7581 32.0015 31.8987 32.5512C32.0712 33.0741 32.189 33.6131 32.2502 34.1597C32.2962 34.8122 32.4201 35.4569 32.6193 36.0807C33.3516 36.0459 32.9122 35.1202 33.3341 34.8251C33.7559 34.53 34.5995 34.9929 35.1385 34.9061C35.1854 34.4328 35.1854 33.9561 35.1385 33.4828C35.0565 32.9909 34.8163 32.6033 34.7753 32.0999C34.6874 31.1684 34.9159 30.1732 34.7753 29.2416C34.6347 28.3101 34.1308 27.5232 33.9141 26.6495C33.7792 25.7739 33.5715 24.9108 33.2931 24.0689C33.088 23.5945 32.8712 23.4903 32.3322 23.5655C32.0159 24.3929 32.1096 25.1625 31.6409 25.9494C31.1722 26.7363 30.6156 27.4942 29.7369 26.4585C29.4465 26.0221 29.1918 25.5636 28.9752 25.0873C28.72 24.7084 28.5557 24.277 28.4948 23.8259C28.4362 22.8481 29.192 22.2405 30.0474 21.986C30.7973 21.7603 30.8383 21.5347 31.4066 21.066C31.7815 20.7478 32.3264 20.6552 32.7482 20.3485C33.4571 19.8451 32.8947 19.3765 33.1935 18.74C33.3985 18.3003 34.3652 18.2945 34.33 17.7911C33.9785 17.5944 33.791 17.2588 33.4102 17.0679C33.0815 16.8657 32.7182 16.7245 32.3381 16.6513C31.9724 16.5717 31.5917 16.5917 31.2367 16.7091C30.9245 16.863 30.5965 16.9833 30.2583 17.0679C29.4322 17.0679 29.0865 15.8297 28.2722 16.6976C28.032 16.9521 27.991 17.2299 27.6863 17.4382C27.3301 17.6397 26.9251 17.7418 26.5146 17.7333C26.1207 17.7806 25.7296 17.8482 25.3429 17.9358C24.913 17.9653 24.4833 17.8772 24.1008 17.6812C23.0463 17.2877 23.1517 16.8538 23.1517 15.7718C23.1517 15.1353 23.1517 13.631 22.3257 13.5847C21.7398 13.5558 21.9507 13.9839 21.6168 14.2154C21.2828 14.4468 20.8083 14.1228 20.6384 13.9203C20.2693 13.4342 20.4567 12.549 19.5955 12.4911C18.7343 12.4333 18.5937 13.3417 18.043 12.3581" fill="#FFCB05"/>
<path d="M4.97238 27.6562L5.4938 29.2358H7.18109L5.81603 30.2137L6.33745 31.7932L4.97238 30.8154L3.61318 31.7932L4.1346 30.2137L2.76953 29.2358H4.45682L4.97238 27.6562ZM8.47 35.0913L8.98556 36.6708H10.6729L9.31364 37.6487L9.82921 39.2283L8.47 38.2504L7.10493 39.2283L7.62635 37.6487L6.26715 36.6708H7.94858L8.47 35.0913ZM41.5362 35.0103L42.0576 36.5956H43.7391L42.374 37.5735L42.8954 39.153L41.5362 38.1752L40.1712 39.153L40.6926 37.5735L39.3334 36.5956H41.0148L41.5362 35.0103ZM45.3385 27.4248L45.8599 29.0044H47.5413L46.1821 29.9822L46.6977 31.5618L45.3385 30.584L43.9793 31.5618L44.4948 29.9822L43.1356 29.0044H44.8171L45.3385 27.4248Z" fill="#ED1C24"/>
</g>
<defs>
<clipPath id="clip0_25_815">
<rect width="50" height="50" fill="white"/>
</clipPath>
</defs>
</svg>
