<svg width="17" height="16" viewBox="0 0 17 16" fill="none" xmlns="http://www.w3.org/2000/svg">
<path d="M14.1667 7.33331C14.1667 6.37665 14.1654 5.70928 14.0977 5.20571C14.0402 4.77754 13.9412 4.52535 13.7937 4.34568L13.7273 4.27277C13.5431 4.08834 13.2836 3.96812 12.7944 3.90232C12.2908 3.83463 11.6234 3.83331 10.6667 3.83331H8.66675C7.71008 3.83331 7.04271 3.83463 6.53914 3.90232C6.11097 3.95991 5.85878 4.05883 5.67912 4.20636L5.6062 4.27277C5.42177 4.45699 5.30156 4.71646 5.23576 5.20571C5.16806 5.70928 5.16675 6.37665 5.16675 7.33331V10.6666C5.16675 11.6233 5.16806 12.2907 5.23576 12.7943C5.30156 13.2835 5.42177 13.543 5.6062 13.7272L5.67912 13.7936C5.85878 13.9411 6.11097 14.0401 6.53914 14.0976C7.04271 14.1653 7.71008 14.1666 8.66675 14.1666H10.6667C11.6234 14.1666 12.2908 14.1653 12.7944 14.0976C13.2836 14.0318 13.5431 13.9116 13.7273 13.7272L13.7937 13.6543C13.9412 13.4746 14.0402 13.2224 14.0977 12.7943C14.1654 12.2907 14.1667 11.6233 14.1667 10.6666V7.33331ZM15.1667 10.6666C15.1667 11.5951 15.168 12.342 15.0893 12.9277C15.0136 13.4903 14.8568 13.9698 14.5066 14.3581L14.4343 14.4342C14.0332 14.8357 13.5278 15.0085 12.9278 15.0892C12.3421 15.1679 11.5952 15.1666 10.6667 15.1666H8.66675C7.73828 15.1666 6.9914 15.1679 6.40568 15.0892C5.84305 15.0135 5.3636 14.8567 4.97534 14.5065L4.89917 14.4342C4.49774 14.0331 4.32491 13.5277 4.24422 12.9277C4.16546 12.342 4.16675 11.5951 4.16675 10.6666V7.33331C4.16675 6.40484 4.16546 5.65797 4.24422 5.07225C4.32491 4.47227 4.49774 3.96682 4.89917 3.56574L4.97534 3.49347C5.3636 3.14324 5.84305 2.98645 6.40568 2.91079C6.9914 2.83203 7.73828 2.83331 8.66675 2.83331H10.6667C11.5952 2.83331 12.3421 2.83203 12.9278 2.91079C13.5278 2.99148 14.0332 3.16431 14.4343 3.56574L14.5066 3.64191C14.8568 4.03016 15.0136 4.50961 15.0893 5.07225C15.168 5.65797 15.1667 6.40484 15.1667 7.33331V10.6666Z" fill="#5C5C5C"/>
<path d="M2.16675 10.6666V6.66665C2.16675 5.42379 2.16577 4.44105 2.26896 3.67381C2.37409 2.89236 2.59546 2.25973 3.09448 1.76105C3.59344 1.26252 4.22634 1.04074 5.00789 0.935527C5.77503 0.832284 6.7573 0.833313 8.00008 0.833313H10.6667C11.3298 0.833313 11.9655 1.09689 12.4343 1.56574C12.9032 2.03458 13.1667 2.67027 13.1667 3.33331H12.1667C12.1667 2.93549 12.0086 2.55407 11.7273 2.27277C11.446 1.99146 11.0646 1.83331 10.6667 1.83331H8.00008C6.72919 1.83331 5.82632 1.83488 5.14136 1.92706C4.47086 2.01733 4.08388 2.18603 3.80151 2.46808C3.51936 2.75 3.35006 3.13656 3.25985 3.80727C3.16771 4.49236 3.16675 5.39551 3.16675 6.66665V10.6666C3.16675 11.0645 3.3249 11.4459 3.6062 11.7272C3.88751 12.0085 4.26892 12.1666 4.66675 12.1666V13.1666C4.00371 13.1666 3.36801 12.9031 2.89917 12.4342C2.43033 11.9654 2.16675 11.3297 2.16675 10.6666Z" fill="#5C5C5C"/>
</svg>
